<svg width="32" height="32" viewBox="0 0 32 32" fill="none" xmlns="http://www.w3.org/2000/svg">
<circle cx="16" cy="16" r="16" fill="white"/>
<g clip-path="url(#clip0_4_65)">
<path d="M21 11.9166V13.7499C21 13.8715 20.9517 13.9881 20.8657 14.074C20.7798 14.16 20.6632 14.2083 20.5417 14.2083C20.4201 14.2083 20.3035 14.16 20.2176 14.074C20.1316 13.9881 20.0833 13.8715 20.0833 13.7499V12.5761L17.6542 14.992C17.6129 15.0403 17.5622 15.0796 17.505 15.1072C17.4478 15.1349 17.3856 15.1503 17.3221 15.1526C17.2587 15.155 17.1954 15.1441 17.1364 15.1206C17.0774 15.0972 17.0239 15.0618 16.9793 15.0166C16.9347 14.9714 16.8999 14.9175 16.8773 14.8582C16.8546 14.7989 16.8445 14.7355 16.8476 14.6721C16.8508 14.6086 16.867 14.5466 16.8954 14.4898C16.9238 14.433 16.9637 14.3827 17.0125 14.3421L19.4462 11.9166H18.25C18.1284 11.9166 18.0118 11.8683 17.9259 11.7824C17.8399 11.6964 17.7917 11.5798 17.7917 11.4583C17.7917 11.3367 17.8399 11.2201 17.9259 11.1342C18.0118 11.0482 18.1284 10.9999 18.25 10.9999H20.0833C20.3264 10.9999 20.5596 11.0965 20.7315 11.2684C20.9034 11.4403 21 11.6735 21 11.9166ZM19.4669 17.8089C19.2022 17.5571 18.8508 17.4169 18.4855 17.4175C18.1202 17.418 17.7691 17.5592 17.5052 17.8117L16.6316 18.5478C15.9185 18.2527 15.2707 17.8197 14.7255 17.2735C14.1802 16.7273 13.7483 16.0787 13.4544 15.3651L14.1878 14.4943C14.4403 14.2303 14.5815 13.8793 14.582 13.514C14.5825 13.1487 14.4423 12.7972 14.1905 12.5326C14.1905 12.5326 13.3417 11.4303 13.3279 11.4156C13.0662 11.1525 12.7115 11.0028 12.3404 10.9989C11.9693 10.9949 11.6115 11.137 11.3443 11.3946L10.8177 11.8529C7.27932 15.6154 16.4093 24.7495 20.1677 21.1571L20.5857 20.6763C20.8513 20.4099 21.0004 20.0491 21.0004 19.673C21.0004 19.2968 20.8513 18.936 20.5857 18.6697C20.5705 18.6578 19.4669 17.8089 19.4669 17.8089Z" fill="#1A56DB"/>
</g>
<defs>
<clipPath id="clip0_4_65">
<rect width="11" height="11" fill="white" transform="translate(10 11)"/>
</clipPath>
</defs>
</svg>
