<svg width="77" height="77" viewBox="0 0 77 77" fill="none" xmlns="http://www.w3.org/2000/svg">
<path d="M38.517 76.997C59.6144 76.997 76.7172 59.8942 76.7172 38.7968C76.7172 17.6995 59.6144 0.59668 38.517 0.59668C17.4197 0.59668 0.316895 17.6995 0.316895 38.7968C0.316895 59.8942 17.4197 76.997 38.517 76.997Z" fill="#6BDAD5"/>
<path d="M54.9092 30.0879L46.288 38.8665C46.2727 38.881 46.2606 38.8984 46.2523 38.9177C46.244 38.937 46.2398 38.9578 46.2398 38.9788C46.2398 38.9999 46.244 39.0207 46.2523 39.04C46.2606 39.0593 46.2727 39.0767 46.288 39.0912L52.3213 45.5171C52.4185 45.6137 52.4955 45.7285 52.5481 45.855C52.6007 45.9815 52.6278 46.1171 52.6278 46.2541C52.6278 46.3911 52.6007 46.5267 52.5481 46.6532C52.4955 46.7797 52.4185 46.8945 52.3213 46.9911C52.1255 47.186 51.8605 47.2954 51.5843 47.2954C51.3081 47.2954 51.0431 47.186 50.8473 46.9911L44.8379 40.5892C44.807 40.5586 44.7653 40.5414 44.7218 40.5414C44.6783 40.5414 44.6365 40.5586 44.6057 40.5892L43.1421 42.082C42.5427 42.6945 41.8273 43.1815 41.0377 43.5144C40.2481 43.8474 39.4 44.0197 38.5431 44.0213C37.6671 44.0179 36.8006 43.8397 35.9944 43.497C35.1882 43.1544 34.4586 42.6542 33.8482 42.0259L32.4348 40.5892C32.4039 40.5586 32.3622 40.5414 32.3187 40.5414C32.2752 40.5414 32.2335 40.5586 32.2026 40.5892L26.1939 46.9934C25.9981 47.1882 25.7331 47.2976 25.4569 47.2976C25.1807 47.2976 24.9157 47.1882 24.7199 46.9934C24.6228 46.8968 24.5457 46.7819 24.4931 46.6554C24.4405 46.529 24.4135 46.3933 24.4135 46.2563C24.4135 46.1194 24.4405 45.9837 24.4931 45.8573C24.5457 45.7308 24.6228 45.6159 24.7199 45.5193L30.7525 39.0912C30.7797 39.0601 30.7947 39.0202 30.7947 38.9788C30.7947 38.9375 30.7797 38.8976 30.7525 38.8665L22.1238 30.0879C22.1018 30.0648 22.0733 30.0488 22.0421 30.0422C22.0109 30.0355 21.9784 30.0385 21.9489 30.0506C21.9194 30.0628 21.8943 30.0836 21.8768 30.1103C21.8594 30.137 21.8504 30.1684 21.8511 30.2003V47.7701C21.8531 48.4498 22.1241 49.101 22.6048 49.5814C23.0855 50.0619 23.7369 50.3324 24.4165 50.334H52.618C53.2973 50.3321 53.9483 50.0613 54.4287 49.5809C54.9091 49.1005 55.1799 48.4495 55.1819 47.7701V30.1996C55.1813 30.1682 55.1716 30.1377 55.1539 30.1118C55.1362 30.0859 55.1113 30.0658 55.0823 30.0539C55.0533 30.042 55.0214 30.0389 54.9907 30.045C54.9599 30.051 54.9316 30.066 54.9092 30.0879Z" fill="white"/>
<path d="M38.5166 41.9301C39.1001 41.9321 39.678 41.8169 40.2161 41.5912C40.7542 41.3655 41.2415 41.034 41.649 40.6163L54.2206 27.8208C53.7717 27.4574 53.2116 27.2593 52.6341 27.2598H24.4072C23.8295 27.258 23.269 27.4562 22.8208 27.8208L35.3916 40.6163C35.7983 41.033 36.2843 41.364 36.8211 41.5897C37.3578 41.8153 37.9343 41.9311 38.5166 41.9301Z" fill="white"/>
</svg>
