<svg width="63" height="63" viewBox="0 0 63 63" fill="none" xmlns="http://www.w3.org/2000/svg">
<circle cx="31.7372" cy="31.2807" r="30.7553" fill="white" fill-opacity="0.6"/>
<g clip-path="url(#clip0_2_64)">
<path d="M31.2608 15.5786C22.8346 15.5786 15.9867 22.4265 15.9867 30.8527C15.9867 39.2789 22.8346 46.1268 31.2608 46.1268C39.687 46.1268 46.5349 39.2789 46.5349 30.8527C46.5349 22.4265 39.687 15.5786 31.2608 15.5786ZM36.0594 32.6729L32.1645 40.2336L29.8989 39.0625L33.4755 32.1128H28.2187C27.5696 32.1128 26.9586 31.8073 26.564 31.2855C26.1694 30.7636 26.0549 30.089 26.2458 29.4653L26.3349 29.2489L30.4462 21.3446L32.6991 22.5156L29.0206 29.5671H34.2774C35.0284 29.5671 35.7157 29.9745 36.0721 30.6491C36.4158 31.2855 36.3903 32.0492 36.0212 32.6729H36.0594Z" fill="#1A56DB"/>
</g>
<defs>
<clipPath id="clip0_2_64">
<rect width="30.5482" height="30.5482" fill="white" transform="translate(15.9867 15.5786)"/>
</clipPath>
</defs>
</svg>
