<svg width="32" height="33" viewBox="0 0 32 33" fill="none" xmlns="http://www.w3.org/2000/svg">
<path fill-rule="evenodd" clip-rule="evenodd" d="M0 16.5117C0 25.3483 7.16344 32.5117 16 32.5117C24.8365 32.5117 32 25.3483 32 16.5117C32 7.67516 24.8365 0.511719 16 0.511719C7.16344 0.511719 0 7.67516 0 16.5117ZM24.2 16.5117C24.2 18.6117 22.5 20.3117 20.4 20.3117C18.3 20.3117 16.6 18.6117 16.6 16.5117C16.6 14.4117 18.3 12.7117 20.4 12.7117C22.5 12.7117 24.2 14.4117 24.2 16.5117ZM11.7 20.3117C13.8 20.3117 15.5 18.6117 15.5 16.5117C15.5 14.4117 13.7 12.7117 11.7 12.7117C9.59999 12.7117 7.89999 14.4117 7.89999 16.5117C7.89999 18.6117 9.59999 20.3117 11.7 20.3117Z" fill="white"/>
</svg>
