<svg width="32" height="33" viewBox="0 0 32 33" fill="none" xmlns="http://www.w3.org/2000/svg">
<path d="M16 19.3117C14.5 19.3117 13.2 18.1117 13.2 16.5117C13.2 15.0117 14.4 13.7117 16 13.7117C17.5 13.7117 18.8 14.9117 18.8 16.5117C18.8 18.0117 17.5 19.3117 16 19.3117Z" fill="white"/>
<path fill-rule="evenodd" clip-rule="evenodd" d="M19.4 9.71172H12.6C11.8 9.81172 11.4 9.91172 11.1 10.0117C10.7 10.1117 10.4 10.3117 10.1 10.6117C9.86261 10.8491 9.75045 11.0865 9.61489 11.3734C9.57916 11.449 9.5417 11.5283 9.5 11.6117C9.48453 11.6581 9.46667 11.7069 9.44752 11.7592C9.34291 12.045 9.2 12.4355 9.2 13.1117V19.9117C9.3 20.7117 9.4 21.1117 9.5 21.4117C9.6 21.8117 9.8 22.1117 10.1 22.4117C10.3374 22.6491 10.5748 22.7613 10.8617 22.8968C10.9374 22.9326 11.0165 22.97 11.1 23.0117C11.1464 23.0272 11.1952 23.045 11.2475 23.0642C11.5333 23.1688 11.9238 23.3117 12.6 23.3117H19.4C20.2 23.2117 20.6 23.1117 20.9 23.0117C21.3 22.9117 21.6 22.7117 21.9 22.4117C22.1374 22.1743 22.2495 21.9369 22.3851 21.65C22.4209 21.5743 22.4583 21.4952 22.5 21.4117C22.5155 21.3653 22.5333 21.3165 22.5525 21.2642C22.6571 20.9784 22.8 20.588 22.8 19.9117V13.1117C22.7 12.3117 22.6 11.9117 22.5 11.6117C22.4 11.2117 22.2 10.9117 21.9 10.6117C21.6626 10.3743 21.4252 10.2622 21.1383 10.1266C21.0627 10.0909 20.9833 10.0534 20.9 10.0117C20.8536 9.99625 20.8048 9.97838 20.7525 9.95924C20.4667 9.85462 20.0762 9.71172 19.4 9.71172ZM16 12.2117C13.6 12.2117 11.7 14.1117 11.7 16.5117C11.7 18.9117 13.6 20.8117 16 20.8117C18.4 20.8117 20.3 18.9117 20.3 16.5117C20.3 14.1117 18.4 12.2117 16 12.2117ZM21.4 12.1117C21.4 12.664 20.9523 13.1117 20.4 13.1117C19.8477 13.1117 19.4 12.664 19.4 12.1117C19.4 11.5594 19.8477 11.1117 20.4 11.1117C20.9523 11.1117 21.4 11.5594 21.4 12.1117Z" fill="white"/>
<path fill-rule="evenodd" clip-rule="evenodd" d="M0 16.5117C0 7.67516 7.16344 0.511719 16 0.511719C24.8366 0.511719 32 7.67516 32 16.5117C32 25.3483 24.8366 32.5117 16 32.5117C7.16344 32.5117 0 25.3483 0 16.5117ZM12.6 8.21172H19.4C20.3 8.31172 20.9 8.41172 21.4 8.61172C22 8.91172 22.4 9.11172 22.9 9.61172C23.4 10.1117 23.7 10.6117 23.9 11.1117C24.1 11.6117 24.3 12.2117 24.3 13.1117V19.9117C24.2 20.8117 24.1 21.4117 23.9 21.9117C23.6 22.5117 23.4 22.9117 22.9 23.4117C22.4 23.9117 21.9 24.2117 21.4 24.4117C20.9 24.6117 20.3 24.8117 19.4 24.8117H12.6C11.7 24.7117 11.1 24.6117 10.6 24.4117C10 24.1117 9.6 23.9117 9.1 23.4117C8.6 22.9117 8.3 22.4117 8.1 21.9117C7.9 21.4117 7.7 20.8117 7.7 19.9117V13.1117C7.8 12.2117 7.9 11.6117 8.1 11.1117C8.4 10.5117 8.6 10.1117 9.1 9.61172C9.6 9.11172 10.1 8.81172 10.6 8.61172C11.1 8.41172 11.7 8.21172 12.6 8.21172Z" fill="white"/>
</svg>
