<svg width="64" height="63" viewBox="0 0 64 63" fill="none" xmlns="http://www.w3.org/2000/svg">
<circle cx="31.9507" cy="31.5" r="27.5625" fill="#3290E8"/>
<path fill-rule="evenodd" clip-rule="evenodd" d="M43.7632 15.75H20.1382C17.9917 15.7467 16.2045 17.5449 16.2007 19.6875V43.3125C16.2007 45.4869 17.9641 47.25 20.1382 47.25H43.7632C45.9097 47.2533 47.6969 45.4551 47.7007 43.3125V19.6875C47.7007 17.5131 45.9382 15.75 43.7632 15.75ZM36.1498 21.525C36.1498 20.9458 36.6207 20.475 37.2007 20.475C37.7806 20.475 38.2507 20.9458 38.2507 21.525V35.5539C38.2507 36.1331 37.7798 36.6039 37.2007 36.6039C36.6448 36.6043 36.1521 36.1116 36.1507 35.5539L36.1498 21.525ZM30.8998 20.9939C30.8998 20.4138 31.3707 19.9439 31.9507 19.9439C32.5306 19.9439 33.0016 20.4138 33.0016 20.9939V36.2189C33.0016 36.799 32.5306 37.2689 31.9507 37.2689C31.3948 37.2693 30.9021 36.7766 30.9007 36.2189L30.8998 20.9939ZM25.6507 21.525C25.6507 20.9458 26.1216 20.475 26.7007 20.475C27.2806 20.475 27.7507 20.9458 27.7507 21.525V35.5539C27.7507 36.1331 27.2806 36.6039 26.7007 36.6039C26.1448 36.6043 25.6521 36.1116 25.6507 35.5539V21.525ZM20.4007 23.625C20.4007 23.0449 20.8707 22.575 21.4507 22.575C22.0306 22.575 22.5007 23.0449 22.5007 23.625V33.0689C22.5007 33.649 22.0298 34.1189 21.4507 34.1189C20.8782 34.1198 20.4016 33.6403 20.4007 33.0689V23.625ZM43.1344 39.641C42.9731 39.781 39.0827 43.0439 31.9507 43.0439C24.8187 43.0439 20.9309 39.7801 20.767 39.6401C20.3331 39.2684 20.2818 38.594 20.6536 38.1605C21.016 37.7386 21.7077 37.6845 22.1309 38.045C22.192 38.0966 25.6655 40.9439 31.9498 40.9439C38.3126 40.9439 41.733 38.0756 41.7661 38.0476C42.1887 37.6844 42.883 37.7374 43.246 38.1605C43.6203 38.5932 43.5696 39.2695 43.1344 39.641ZM43.5007 33.0698C43.5007 33.649 43.0298 34.1198 42.4507 34.1198C41.8782 34.1207 41.4016 33.6411 41.4007 33.0698V23.625C41.4007 23.0449 41.8707 22.575 42.4498 22.575C43.0298 22.575 43.5007 23.0449 43.5007 23.625V33.0698Z" fill="white"/>
</svg>
