<svg width="83" height="43" viewBox="0 0 83 43" fill="none" xmlns="http://www.w3.org/2000/svg">
<path d="M57.646 6.4364C57.7397 7.95236 57.7112 9.4734 57.5608 10.9848C57.4886 11.3975 56.4036 11.6309 55.7151 11.9807C56.1933 13.3541 56.5966 14.7523 56.9233 16.1694C57.2888 18.6322 56.805 21.1461 55.5515 23.2973C54.298 25.4486 52.3496 27.1091 50.0268 28.0056C47.704 28.902 45.1451 28.981 42.7714 28.2296C40.3977 27.4782 38.3505 25.9412 36.9666 23.8713C35.5828 21.8015 34.9448 19.3223 35.1576 16.8416C35.3703 14.3609 36.4213 12.0265 38.1374 10.2226C39.8535 8.41867 42.1325 7.2527 44.5995 6.91651C47.0666 6.58033 49.5745 7.09398 51.7108 8.37292C52.0211 8.61182 52.4069 8.73133 52.798 8.70974C53.189 8.68815 53.5593 8.52687 53.8415 8.25525C55.0593 7.54823 56.3318 6.93982 57.6466 6.43579L57.646 6.4364ZM46.0793 11.6583C44.4469 11.6823 42.8887 12.344 41.7378 13.5018C40.5869 14.6597 39.9347 16.2219 39.9206 17.8544C39.9823 19.4858 40.6686 21.0312 41.8376 22.1709C43.0066 23.3105 44.5688 23.9574 46.2013 23.9776C47.8105 23.9195 49.3358 23.2452 50.4619 22.0942C51.588 20.9432 52.2288 19.4035 52.2517 17.7934C52.2495 16.9849 52.088 16.1848 51.7763 15.4388C51.4647 14.6927 51.0091 14.0154 50.4356 13.4456C49.862 12.8758 49.1818 12.4246 48.4338 12.1178C47.6858 11.811 46.8846 11.6546 46.0762 11.6577L46.0793 11.6583Z" fill="white"/>
<path d="M31.2251 17.841C31.2004 20.3829 30.2955 22.8377 28.6644 24.7874C27.0334 26.7372 24.7771 28.0614 22.2795 28.5347C19.7819 29.008 17.1975 28.601 14.9662 27.3831C12.7349 26.1653 10.9947 24.2117 10.0417 21.8551C9.08875 19.4985 8.98193 16.8844 9.73952 14.4579C10.4971 12.0314 12.0723 9.94243 14.1968 8.54664C16.3213 7.15084 18.8639 6.53449 21.3918 6.80249C23.9196 7.0705 26.2765 8.20629 28.0611 10.0165C29.078 11.048 29.881 12.2702 30.424 13.613C30.9669 14.9558 31.2392 16.3926 31.2251 17.841ZM14.1315 17.8055C14.1408 19.2041 14.6343 20.5563 15.5282 21.6321C16.4221 22.7078 17.6611 23.4406 19.0344 23.7059C20.4077 23.9711 21.8304 23.7524 23.0606 23.0869C24.2908 22.4214 25.2524 21.3502 25.7819 20.0556C26.3113 18.7611 26.376 17.323 25.9647 15.9862C25.5534 14.6494 24.6917 13.4963 23.5262 12.7232C22.3606 11.9501 20.9631 11.6047 19.5716 11.7457C18.1801 11.8867 16.8804 12.5055 15.8937 13.4968C15.3301 14.0631 14.8841 14.7354 14.5817 15.4749C14.2792 16.2144 14.1262 17.0065 14.1315 17.8055Z" fill="white"/>
<path d="M71.8932 28.6871C69.3689 28.6433 66.9378 27.7261 65.0138 26.0915C63.0898 24.457 61.7918 22.2061 61.3406 19.7221C60.8895 17.2382 61.3132 14.6746 62.5396 12.4679C63.766 10.2612 65.7192 8.54768 68.0668 7.61909C70.4145 6.69051 73.0114 6.60423 75.4154 7.37495C77.8195 8.14568 79.8822 9.72576 81.2523 11.8462C82.6224 13.9667 83.2153 16.4965 82.9301 19.0049C82.6448 21.5133 81.499 23.8454 79.6877 25.604C78.6557 26.6061 77.4358 27.3943 76.0981 27.9234C74.7604 28.4525 73.3314 28.7121 71.8932 28.6871ZM72.0425 11.6178C70.795 11.6182 69.5987 12.1143 68.7168 12.9967C67.8348 13.8791 67.3395 15.0757 67.3397 16.3233C67.34 17.5709 67.8358 18.7673 68.718 19.6494C69.6003 20.5315 70.7968 21.027 72.0444 21.027C73.2919 21.027 74.4885 20.5315 75.3708 19.6494C76.253 18.7673 76.7487 17.5709 76.749 16.3233C76.7492 15.0757 76.254 13.8791 75.3721 12.9967C74.4901 12.1143 73.2938 11.6182 72.0463 11.6178H72.0425Z" fill="white"/>
<path d="M35.0344 31.1601C36.4082 31.0991 37.7844 31.1199 39.1558 31.2223C39.5511 31.2709 40.0272 31.9892 40.1673 32.484C40.4086 33.5347 40.9268 34.5015 41.6681 35.2842C42.4093 36.0668 43.3466 36.6368 44.3825 36.9348C45.4184 37.2329 46.5153 37.2482 47.5591 36.9791C48.603 36.71 49.5558 36.1664 50.3185 35.4047C51.2856 34.1189 52.0972 32.7231 52.7362 31.2466H57.1159C57.0896 33.1211 56.5842 34.9578 55.648 36.582C54.7117 38.2063 53.3756 39.564 51.7667 40.5264C50.1578 41.4887 48.3296 42.0237 46.4557 42.0803C44.5819 42.137 42.7246 41.7135 41.0605 40.85C37.2329 38.921 35.4011 35.6288 35.0344 31.1601Z" fill="white"/>
<path d="M4.60911 14.2159C4.60911 18.359 4.57054 22.5034 4.63092 26.6441C4.64959 27.9139 4.30348 28.4337 2.94587 28.3989C-0.407997 28.3011 0.0202573 28.6758 0.0152776 25.4732C-0.00132164 17.5965 -0.00132164 9.72018 0.0152776 1.84427C0.0152776 0.010475 0.0221247 -0.00820089 1.80488 0.00611593C4.92345 0.0272799 4.59789 -0.36737 4.60972 2.74498C4.62341 6.56695 4.60911 10.3914 4.60911 14.2159Z" fill="white"/>
<circle cx="72.0479" cy="17.8675" r="6.34014" fill="#1A56DB"/>
</svg>
