<svg width="82" height="42" viewBox="0 0 82 42" fill="none" xmlns="http://www.w3.org/2000/svg">
<path d="M56.9531 6.359C57.0456 7.85674 57.0175 9.3595 56.8689 10.8527C56.7975 11.2605 55.7256 11.4911 55.0454 11.8367C55.5178 13.1935 55.9163 14.575 56.2391 15.975C56.6002 18.4082 56.1222 20.8919 54.8838 23.0173C53.6454 25.1427 51.7204 26.7832 49.4254 27.6689C47.1305 28.5546 44.6025 28.6327 42.2573 27.8903C39.9121 27.1479 37.8895 25.6293 36.5223 23.5844C35.1551 21.5394 34.5247 19.09 34.735 16.6391C34.9452 14.1882 35.9835 11.8819 37.679 10.0997C39.3745 8.31745 41.6261 7.16548 44.0634 6.83334C46.5008 6.5012 48.9786 7.00867 51.0892 8.27224C51.3958 8.50827 51.777 8.62635 52.1633 8.60501C52.5497 8.58368 52.9155 8.42434 53.1943 8.15599C54.3975 7.45747 55.6546 6.85636 56.9537 6.3584L56.9531 6.359ZM45.5254 11.5181C43.9126 11.5418 42.3731 12.1956 41.2361 13.3395C40.099 14.4835 39.4547 16.0269 39.4408 17.6397C39.5017 19.2516 40.1797 20.7784 41.3347 21.9043C42.4896 23.0303 44.0331 23.6694 45.646 23.6894C47.2358 23.632 48.7428 22.9658 49.8554 21.8286C50.968 20.6914 51.601 19.1702 51.6236 17.5795C51.6214 16.7807 51.4618 15.9902 51.154 15.2531C50.8461 14.5161 50.396 13.8469 49.8293 13.284C49.2627 12.721 48.5907 12.2752 47.8516 11.9721C47.1126 11.669 46.3211 11.5145 45.5223 11.5175L45.5254 11.5181Z" fill="#1A56DB"/>
<path d="M30.8498 17.6265C30.8254 20.1379 29.9313 22.5631 28.3199 24.4894C26.7084 26.4158 24.4792 27.7241 22.0117 28.1917C19.5441 28.6592 16.9908 28.2572 14.7863 27.054C12.5818 25.8507 10.8625 23.9207 9.92099 21.5924C8.97948 19.2641 8.87394 16.6814 9.62243 14.2841C10.3709 11.8867 11.9271 9.8229 14.0261 8.44388C16.1251 7.06487 18.6371 6.45592 21.1346 6.7207C23.6321 6.98548 25.9606 8.10763 27.7238 9.89611C28.7284 10.9152 29.5218 12.1227 30.0582 13.4493C30.5947 14.776 30.8637 16.1956 30.8498 17.6265ZM13.9616 17.5915C13.9708 18.9733 14.4584 20.3092 15.3415 21.372C16.2247 22.4348 17.4488 23.1589 18.8056 23.4209C20.1624 23.683 21.568 23.4668 22.7834 22.8093C23.9988 22.1518 24.9489 21.0935 25.472 19.8145C25.9951 18.5355 26.0589 17.1148 25.6526 15.794C25.2463 14.4732 24.3949 13.334 23.2434 12.5702C22.0918 11.8064 20.7111 11.4651 19.3363 11.6045C17.9615 11.7438 16.6775 12.3552 15.7026 13.3345C15.1458 13.894 14.7052 14.5582 14.4064 15.2889C14.1076 16.0195 13.9564 16.8021 13.9616 17.5915Z" fill="#1A56DB"/>
<path d="M71.029 28.3424C68.5351 28.2992 66.1332 27.3929 64.2323 25.778C62.3315 24.1631 61.049 21.9393 60.6033 19.4852C60.1576 17.0311 60.5762 14.4983 61.7879 12.3181C62.9995 10.1379 64.9293 8.44504 67.2487 7.52762C69.5681 6.61019 72.1337 6.52495 74.5089 7.28641C76.8841 8.04787 78.922 9.60896 80.2756 11.7039C81.6293 13.7989 82.2151 16.2983 81.9332 18.7766C81.6514 21.2548 80.5193 23.5589 78.7298 25.2964C77.7102 26.2864 76.5049 27.0652 75.1834 27.5879C73.8618 28.1106 72.45 28.3671 71.029 28.3424ZM71.1766 11.4782C69.944 11.4787 68.7621 11.9687 67.8907 12.8406C67.0194 13.7124 66.5301 14.8946 66.5303 16.1272C66.5305 17.3598 67.0204 18.5418 67.892 19.4133C68.7637 20.2848 69.9458 20.7744 71.1784 20.7744C72.411 20.7744 73.5931 20.2848 74.4648 19.4133C75.3364 18.5418 75.8262 17.3598 75.8264 16.1272C75.8267 14.8946 75.3374 13.7124 74.4661 12.8406C73.5947 11.9687 72.4128 11.4787 71.1802 11.4782H71.1766Z" fill="#1A56DB"/>
<path d="M34.6133 30.7856C35.9706 30.7254 37.3302 30.7459 38.6851 30.8471C39.0756 30.8951 39.5461 31.6048 39.6845 32.0937C39.9229 33.1317 40.4349 34.0869 41.1672 34.8602C41.8995 35.6334 42.8255 36.1965 43.849 36.491C44.8725 36.7855 45.9561 36.8006 46.9874 36.5347C48.0187 36.2689 48.9601 35.7318 49.7137 34.9792C50.6691 33.7089 51.4709 32.3299 52.1023 30.8711H56.4294C56.4033 32.7231 55.904 34.5377 54.9791 36.1424C54.0541 37.7471 52.734 39.0886 51.1445 40.0394C49.5549 40.9902 47.7487 41.5187 45.8973 41.5746C44.046 41.6306 42.211 41.2122 40.5669 40.3591C36.7854 38.4533 34.9755 35.2006 34.6133 30.7856Z" fill="#1A56DB"/>
<path d="M4.55371 14.045C4.55371 18.1383 4.5156 22.2329 4.57525 26.3238C4.5937 27.5784 4.25175 28.0919 2.91046 28.0575C-0.403093 27.9609 0.0200138 28.3312 0.0150939 25.167C-0.00130575 17.385 -0.00130575 9.60334 0.0150939 1.8221C0.0150939 0.0103491 0.0218588 -0.00810231 1.78318 0.00604241C4.86427 0.026952 4.54262 -0.362954 4.55431 2.71199C4.56784 6.48801 4.55371 10.2665 4.55371 14.045Z" fill="#1A56DB"/>
<circle cx="71.1819" cy="17.6526" r="6.26393" fill="white"/>
</svg>
