<svg width="64" height="63" viewBox="0 0 64 63" fill="none" xmlns="http://www.w3.org/2000/svg">
<path fill-rule="evenodd" clip-rule="evenodd" d="M31.9507 59.0625C47.173 59.0625 59.5132 46.7223 59.5132 31.5C59.5132 16.2777 47.173 3.9375 31.9507 3.9375C16.7283 3.9375 4.38818 16.2777 4.38818 31.5C4.38818 46.7223 16.7283 59.0625 31.9507 59.0625Z" fill="#1FB6FF"/>
<path fill-rule="evenodd" clip-rule="evenodd" d="M29.2036 25.4386C31.2219 25.4605 27.6687 35.9373 28.0501 40.4919C28.4349 45.087 33.5193 43.7639 33.1966 41.1187C32.6475 36.6216 35.6432 22.53 38.6813 22.53C40.8129 22.53 36.3204 32.2445 37.2043 38.4652C37.7892 42.5809 43.0978 41.1532 42.5583 38.7129C40.7738 30.6367 46.3028 22.875 45.6832 17.3757C45.4122 14.9696 43.9651 13.7929 42.5177 13.7814C37.4499 13.7424 33.5352 24.1352 33.5352 24.1352C33.5352 24.1352 33.9428 18.2283 30.0042 18.0114C23.9737 17.6791 18.0038 32.7714 18.1729 46.2473C18.2269 50.5465 23.5775 49.8142 23.2962 46.3866C22.7729 40.0121 26.3269 25.4078 29.2036 25.4386Z" fill="white"/>
</svg>
