<svg width="64" height="63" viewBox="0 0 64 63" fill="none" xmlns="http://www.w3.org/2000/svg">
<path fill-rule="evenodd" clip-rule="evenodd" d="M11.7041 57.5225L4.93281 49.0871C3.30366 47.0576 2.41943 44.5619 2.41943 41.9932V11.4483C2.41943 7.60064 5.49774 4.40797 9.46896 4.13684L40.8733 1.99273C43.1548 1.83697 45.4225 2.4434 47.2966 3.71051L58.3304 11.1705C60.3055 12.5059 61.4819 14.6888 61.4819 17.0184V51.745C61.4819 55.5104 58.4551 58.628 54.5669 58.8673L19.7116 61.0129C16.6089 61.2039 13.6098 59.8966 11.7041 57.5225Z" fill="white"/>
<path d="M22.5952 26.733V26.3331C22.5952 25.3195 23.4071 24.4787 24.4535 24.4089L32.0752 23.9L42.6154 39.4213V25.7987L39.9024 25.4371V25.2471C39.9024 24.2215 40.7328 23.3753 41.7925 23.321L48.7274 22.9657V23.9637C48.7274 24.4322 48.3791 24.833 47.9016 24.9137L46.2327 25.196V47.2572L44.1383 47.9775C42.3885 48.5792 40.4406 47.9351 39.4389 46.4236L29.2062 30.9825V45.7202L32.3558 46.3229L32.312 46.6151C32.1745 47.5302 31.3844 48.2223 30.4287 48.2648L22.5952 48.6134C22.4917 47.6294 23.2292 46.749 24.2466 46.6421L25.2771 46.5339V26.8837L22.5952 26.733Z" fill="black"/>
<path fill-rule="evenodd" clip-rule="evenodd" d="M41.1542 5.84081L9.74989 7.98491C7.86879 8.11334 6.41064 9.62566 6.41064 11.4482V41.9931C6.41064 43.7056 7.00013 45.3694 8.08623 46.7224L14.8575 55.1578C15.9523 56.5217 17.6751 57.2726 19.4576 57.1629L54.3129 55.0174C56.0993 54.9074 57.49 53.475 57.49 51.745V17.0183C57.49 15.948 56.9495 14.945 56.0421 14.3315L45.0082 6.87147C43.8837 6.1112 42.5232 5.74735 41.1542 5.84081ZM11.3072 11.9247C10.8704 11.6013 11.0783 10.9276 11.627 10.8882L41.3655 8.7552C42.313 8.68724 43.2545 8.94816 44.0208 9.49106L49.9876 13.7185C50.2142 13.879 50.1079 14.2254 49.8274 14.2407L18.3344 15.9535C17.3814 16.0053 16.4406 15.7253 15.6828 15.1642L11.3072 11.9247ZM16.8573 21.3229C16.8573 20.2998 17.6838 19.4547 18.7408 19.3971L52.0378 17.5838C53.0679 17.5277 53.9351 18.3198 53.9351 19.317V49.3866C53.9351 50.4078 53.1114 51.2521 52.0566 51.3121L18.9704 53.1947C17.824 53.2599 16.8573 52.379 16.8573 51.2691V21.3229Z" fill="black"/>
</svg>
