<svg width="77" height="77" viewBox="0 0 77 77" fill="none" xmlns="http://www.w3.org/2000/svg">
<path d="M38.7045 76.997C59.8019 76.997 76.9047 59.8942 76.9047 38.7968C76.9047 17.6995 59.8019 0.59668 38.7045 0.59668C17.6072 0.59668 0.504395 17.6995 0.504395 38.7968C0.504395 59.8942 17.6072 76.997 38.7045 76.997Z" fill="#1A56DB"/>
<path d="M53.3483 47.597C51.6909 46.1561 49.8583 44.93 47.894 43.9478C46.2596 43.1628 45.6604 43.1793 44.5031 44.0122C43.5399 44.7081 42.9167 45.3552 41.8067 45.1125C40.6966 44.8699 38.511 43.219 36.3927 41.1068C34.2745 38.9945 32.6214 36.8014 32.3869 35.6928C32.1525 34.5843 32.7997 33.9611 33.4873 32.9963C34.3209 31.8391 34.3449 31.2406 33.5517 29.6055C32.575 27.639 31.3492 25.8063 29.9047 24.1526C28.7152 22.9632 28.4478 23.2224 27.7924 23.4568C27.1179 23.7393 26.4706 24.0828 25.8585 24.483C24.8596 25.0536 24.0518 25.9068 23.5365 26.9353C23.0751 27.9307 22.541 29.7815 25.2592 34.6232C27.2659 38.3281 29.8074 41.7171 32.8019 44.6811L32.8101 44.6893L32.8184 44.6976C35.7839 47.6905 39.1727 50.2321 42.8763 52.241C47.7157 54.9599 49.5688 54.4259 50.5642 53.9637C51.5962 53.4534 52.4507 52.6443 53.0165 51.6418C53.4172 51.0297 53.7612 50.3824 54.0442 49.7078C54.2786 49.0509 54.5453 48.7835 53.3483 47.597Z" fill="white"/>
</svg>
