<svg width="77" height="77" viewBox="0 0 77 77" fill="none" xmlns="http://www.w3.org/2000/svg">
<path d="M38.5673 76.997C59.6647 76.997 76.7675 59.8942 76.7675 38.7968C76.7675 17.6995 59.6647 0.59668 38.5673 0.59668C17.47 0.59668 0.367188 17.6995 0.367188 38.7968C0.367188 59.8942 17.47 76.997 38.5673 76.997Z" fill="#FFC876"/>
<g clip-path="url(#clip0_10_692)">
<path d="M38.439 57.0117L37.4224 56.1403C36.021 54.9669 23.7842 44.3987 23.7842 36.6684C23.7842 28.5747 30.3454 22.0135 38.439 22.0135C46.5326 22.0135 53.0938 28.5747 53.0938 36.6684C53.0938 44.3988 40.857 54.9669 39.4614 56.1461L38.439 57.0117ZM38.439 25.1823C32.0985 25.1895 26.9602 30.3278 26.953 36.6683C26.953 41.5247 34.4816 49.2826 38.439 52.8334C42.3965 49.2812 49.9249 41.5188 49.9249 36.6683C49.9178 30.3278 44.7796 25.1896 38.439 25.1823Z" fill="white"/>
<path d="M38.4389 42.4775C35.2307 42.4775 32.6299 39.8767 32.6299 36.6684C32.6299 33.4602 35.2307 30.8594 38.4389 30.8594C41.6472 30.8594 44.248 33.4602 44.248 36.6684C44.248 39.8767 41.6472 42.4775 38.4389 42.4775ZM38.4389 33.7638C36.8348 33.7638 35.5344 35.0642 35.5344 36.6683C35.5344 38.2725 36.8348 39.5729 38.4389 39.5729C40.043 39.5729 41.3434 38.2725 41.3434 36.6683C41.3434 35.0642 40.0431 33.7638 38.4389 33.7638Z" fill="white"/>
</g>
<defs>
<clipPath id="clip0_10_692">
<rect width="35" height="35" fill="white" transform="translate(21 22)"/>
</clipPath>
</defs>
</svg>
