<svg width="32" height="33" viewBox="0 0 32 33" fill="none" xmlns="http://www.w3.org/2000/svg">
<path fill-rule="evenodd" clip-rule="evenodd" d="M0 16.5117C0 7.67516 7.16344 0.511719 16 0.511719C24.8366 0.511719 32 7.67516 32 16.5117C32 25.3483 24.8366 32.5117 16 32.5117C7.16344 32.5117 0 25.3483 0 16.5117ZM8 16.5117C8 12.1117 11.6 8.51172 16 8.51172C20.4 8.51172 24 12.1117 23.9 16.1117C23.9 20.5117 20.3 24.1117 15.9 24.1117C15.1 24.1117 14.3 24.0117 13.6 23.8117C13.9 23.3117 14.2 22.7117 14.4 22.1117C14.5 21.7117 15 19.9117 15 19.9117C15.3 20.4117 16.1 20.9117 17 20.9117C19.6 20.9117 21.3 18.5117 21.3 15.4117C21.3 13.0117 19.3 10.8117 16.2 10.8117C12.4 10.8117 10.5 13.5117 10.5 15.8117C10.5 17.2117 11 18.4117 12.1 18.9117C12.3 19.0117 12.4 18.9117 12.5 18.7117C12.6 18.6117 12.7 18.2117 12.7 18.1117C12.7707 17.9703 12.7414 17.9289 12.6828 17.846C12.6586 17.8117 12.6293 17.7703 12.6 17.7117C12.3 17.3117 12.1 16.8117 12.1 16.1117C12.1 14.1117 13.6 12.3117 16 12.3117C18.1 12.3117 19.3 13.6117 19.3 15.4117C19.3 17.8117 18.3 19.7117 16.8 19.7117C15.9 19.7117 15.3 19.0117 15.5 18.2117C15.5835 17.7943 15.7192 17.3594 15.8491 16.9435C16.0303 16.3631 16.2 15.8195 16.2 15.4117C16.2 14.7117 15.8 14.2117 15.1 14.2117C14.3 14.2117 13.6 15.1117 13.6 16.3117C13.6 17.1117 13.9 17.6117 13.9 17.6117C13.9 17.6117 13.1 21.3117 12.9 22.0117C12.8 22.6117 12.8 23.2116 12.8 23.8116C10 22.6116 8 19.8117 8 16.5117Z" fill="white"/>
</svg>
