<svg width="24" height="20" viewBox="0 0 24 20" fill="none" xmlns="http://www.w3.org/2000/svg">
<g clip-path="url(#clip0_50_512)">
<path d="M11.7933 18.3334C6.55598 18.3334 2.31055 14.6026 2.31055 10.0001C2.31055 5.39758 6.55598 1.66675 11.7933 1.66675C17.0306 1.66675 21.2761 5.39758 21.2761 10.0001C21.2761 14.6026 17.0306 18.3334 11.7933 18.3334ZM11.7933 16.6667C13.8053 16.6667 15.7349 15.9644 17.1576 14.7141C18.5803 13.4639 19.3795 11.7682 19.3795 10.0001C19.3795 8.23197 18.5803 6.53628 17.1576 5.28604C15.7349 4.03579 13.8053 3.33341 11.7933 3.33341C9.78132 3.33341 7.85174 4.03579 6.42905 5.28604C5.00636 6.53628 4.2071 8.23197 4.2071 10.0001C4.2071 11.7682 5.00636 13.4639 6.42905 14.7141C7.85174 15.9644 9.78132 16.6667 11.7933 16.6667ZM10.845 12.5001H12.7416V14.1667H10.845V12.5001ZM12.7416 11.1292V11.6667H10.845V10.4167C10.845 10.1957 10.9449 9.98377 11.1228 9.82749C11.3006 9.67121 11.5418 9.58342 11.7933 9.58342C12.0627 9.5834 12.3265 9.51616 12.5541 9.38952C12.7817 9.26288 12.9637 9.08205 13.079 8.86807C13.1942 8.65408 13.2379 8.41574 13.205 8.18078C13.1721 7.94582 13.064 7.7239 12.8931 7.54084C12.7223 7.35778 12.4959 7.22111 12.2402 7.14672C11.9844 7.07234 11.7099 7.0633 11.4485 7.12067C11.1872 7.17803 10.9497 7.29944 10.7638 7.47076C10.5779 7.64208 10.4512 7.85628 10.3984 8.08842L8.53788 7.76091C8.65322 7.25432 8.91957 6.78372 9.3097 6.39724C9.69983 6.01075 10.1997 5.72223 10.7583 5.56118C11.3169 5.40013 11.9142 5.37232 12.489 5.48059C13.0639 5.58887 13.5957 5.82934 14.0301 6.17744C14.4645 6.52553 14.786 6.96875 14.9616 7.4618C15.1372 7.95485 15.1607 8.48004 15.0296 8.98367C14.8986 9.48731 14.6177 9.95133 14.2157 10.3283C13.8137 10.7053 13.305 10.9817 12.7416 11.1292Z" fill="#718096"/>
</g>
<defs>
<clipPath id="clip0_50_512">
<rect width="22.7586" height="20" fill="white" transform="translate(0.414062)"/>
</clipPath>
</defs>
</svg>
