<svg width="64" height="63" viewBox="0 0 64 63" fill="none" xmlns="http://www.w3.org/2000/svg">
<path d="M4.38818 31.496C4.38818 46.716 16.7301 59.0588 31.9517 59.0588C47.1733 59.0588 59.5132 46.716 59.5132 31.496C59.5132 16.272 47.1733 3.93384 31.9517 3.93384C16.7301 3.93384 4.38818 16.272 4.38818 31.496Z" fill="url(#paint0_linear_38_554)"/>
<path fill-rule="evenodd" clip-rule="evenodd" d="M39.128 49.4654C39.8506 48.7694 44.0917 44.6854 46.531 41.9953C48.8559 39.4245 50.0251 36.1167 49.8151 32.6867C49.5994 29.1542 47.9508 25.8828 45.1696 23.4804C40.5765 19.5091 33.1527 19.5898 28.6212 23.6567C26.9682 25.1379 25.1011 27.1698 25.0214 27.2569C23.8298 28.5527 23.9179 30.5701 25.2113 31.7611C26.5068 32.95 28.5184 32.8656 29.7131 31.5712C29.7292 31.5522 31.4514 29.678 32.8723 28.4057C35.258 26.264 39.0735 26.6351 41.0053 28.3053C42.477 29.5755 43.3464 31.2688 43.4567 33.0728C43.5605 34.7753 42.9748 36.425 41.8111 37.7102C39.5121 40.2508 35.28 44.3233 34.6952 44.886C34.6539 44.9257 34.6309 44.9479 34.6278 44.951C33.3569 46.1685 33.3106 48.1829 34.5274 49.4576C35.1529 50.1113 35.9883 50.4423 36.8304 50.4423C37.6202 50.4423 38.4127 50.1483 39.0283 49.5614C39.0417 49.5483 39.0756 49.5157 39.128 49.4654ZM19.1196 39.2918C21.3801 41.2466 24.3246 42.2223 27.2731 42.2223C30.3182 42.2223 33.367 41.183 35.6676 39.1162C37.1834 37.7548 38.8831 35.9323 39.2132 35.5782C39.2428 35.5466 39.2614 35.5266 39.2678 35.5198C40.4588 34.224 40.3724 32.2052 39.0779 31.0155C37.7849 29.8229 35.7685 29.906 34.5784 31.2031C34.5779 31.2038 34.5749 31.207 34.5697 31.2127C34.4338 31.3594 32.7848 33.1415 31.4179 34.3708C29.0309 36.5084 25.2168 36.1426 23.2826 34.4687C21.8126 33.1975 20.9432 31.5038 20.8319 29.6984C20.7281 27.9976 21.3147 26.3517 22.4785 25.0614C24.9411 22.3439 29.6139 17.8692 29.6618 17.8237C30.9334 16.6075 30.9766 14.5904 29.7625 13.317C28.5454 12.0454 26.5312 11.9968 25.2603 13.2146L25.2393 13.2347C24.8465 13.6116 20.3133 17.9603 17.7606 20.7807C15.432 23.3501 14.2676 26.6576 14.4735 30.0863C14.6909 33.6207 16.3396 36.8898 19.1196 39.2918Z" fill="white"/>
<defs>
<linearGradient id="paint0_linear_38_554" x1="4.38818" y1="59.0588" x2="4.38818" y2="3.93384" gradientUnits="userSpaceOnUse">
<stop stop-color="#2255FF"/>
<stop offset="1" stop-color="#00AAFF"/>
</linearGradient>
</defs>
</svg>
