<svg width="18" height="22" viewBox="0 0 18 22" fill="none" xmlns="http://www.w3.org/2000/svg">
<g clip-path="url(#clip0_46_195)">
<path d="M17.1126 3.66667H14.3182C14.109 2.63213 13.5555 1.70257 12.7509 1.03466C11.9463 0.366749 10.9399 0.00133331 9.90133 0L8.09852 0C7.05991 0.00133331 6.05351 0.366749 5.24894 1.03466C4.44437 1.70257 3.89083 2.63213 3.68161 3.66667H0.887248C0.64818 3.66667 0.418903 3.76324 0.249856 3.93515C0.0808094 4.10706 -0.0141602 4.34022 -0.0141602 4.58333C-0.0141602 4.82645 0.0808094 5.05961 0.249856 5.23151C0.418903 5.40342 0.64818 5.5 0.887248 5.5H1.78866V17.4167C1.79009 18.6318 2.2654 19.7967 3.11032 20.656C3.95524 21.5152 5.1008 21.9985 6.2957 22H11.7042C12.8991 21.9985 14.0446 21.5152 14.8895 20.656C15.7345 19.7967 16.2098 18.6318 16.2112 17.4167V5.5H17.1126C17.3517 5.5 17.5809 5.40342 17.75 5.23151C17.919 5.05961 18.014 4.82645 18.014 4.58333C18.014 4.34022 17.919 4.10706 17.75 3.93515C17.5809 3.76324 17.3517 3.66667 17.1126 3.66667ZM8.09852 1.83333H9.90133C10.4605 1.83403 11.0057 2.01059 11.4622 2.33882C11.9188 2.66705 12.2643 3.13087 12.4514 3.66667H5.54843C5.73555 3.13087 6.08107 2.66705 6.53763 2.33882C6.99418 2.01059 7.5394 1.83403 8.09852 1.83333ZM14.4084 17.4167C14.4084 18.146 14.1235 18.8455 13.6163 19.3612C13.1092 19.8769 12.4214 20.1667 11.7042 20.1667H6.2957C5.57849 20.1667 4.89066 19.8769 4.38352 19.3612C3.87638 18.8455 3.59147 18.146 3.59147 17.4167V5.5H14.4084V17.4167Z" fill="#1A56DB"/>
<path d="M7.19682 16.5C7.43589 16.5 7.66516 16.4034 7.83421 16.2315C8.00326 16.0596 8.09823 15.8264 8.09823 15.5833V10.0833C8.09823 9.84018 8.00326 9.60702 7.83421 9.43511C7.66516 9.2632 7.43589 9.16663 7.19682 9.16663C6.95775 9.16663 6.72847 9.2632 6.55943 9.43511C6.39038 9.60702 6.29541 9.84018 6.29541 10.0833V15.5833C6.29541 15.8264 6.39038 16.0596 6.55943 16.2315C6.72847 16.4034 6.95775 16.5 7.19682 16.5Z" fill="#1A56DB"/>
<path d="M10.8033 16.5C11.0423 16.5 11.2716 16.4034 11.4407 16.2315C11.6097 16.0596 11.7047 15.8264 11.7047 15.5833V10.0833C11.7047 9.84018 11.6097 9.60702 11.4407 9.43511C11.2716 9.2632 11.0423 9.16663 10.8033 9.16663C10.5642 9.16663 10.3349 9.2632 10.1659 9.43511C9.99683 9.60702 9.90186 9.84018 9.90186 10.0833V15.5833C9.90186 15.8264 9.99683 16.0596 10.1659 16.2315C10.3349 16.4034 10.5642 16.5 10.8033 16.5Z" fill="#1A56DB"/>
</g>
<defs>
<clipPath id="clip0_46_195">
<rect width="18" height="22" fill="white"/>
</clipPath>
</defs>
</svg>
