<svg width="64" height="63" viewBox="0 0 64 63" fill="none" xmlns="http://www.w3.org/2000/svg">
<circle cx="31.9507" cy="31.5" r="27.5625" fill="#5FCF80"/>
<path d="M47.546 20.314C45.9764 19.3749 44.2055 18.0575 42.568 19.7413C40.5332 22.6306 36.7979 26.5209 38.704 30.3009C39.4735 31.7516 40.7452 32.834 41.7674 34.0952C42.3671 34.7119 42.6835 35.515 42.568 36.3861C42.4288 37.5674 41.4889 38.4981 40.3401 38.6413C38.8084 38.8202 37.4856 37.5674 37.4856 36.0282C37.3464 35.2049 37.5552 33.3435 36.1628 33.1288C35.2577 32.9856 34.109 34.4532 33.5172 36.3861C33.0436 37.9823 33.3083 39.3404 33.3083 40.9322C33.3083 42.6375 32.0737 44.1707 30.2449 43.9748C29.0266 43.8316 27.9822 42.8293 27.8082 41.5765C27.6554 40.5815 28.084 39.5704 28.6785 38.7844C29.2702 37.8896 30.1753 36.5293 30.6279 35.2765C31.1152 33.9521 31.8308 32.8961 30.9064 32.1981C29.9819 31.5 26.0592 37.34 23.9094 36.9589C22.9347 36.7799 22.1688 35.9566 21.9948 34.9901C21.7163 33.5225 22.6562 32.2339 23.9442 31.9833C25.456 31.709 29.9365 30.0236 29.4443 28.189C28.997 26.6251 25.1528 29.5223 23.9094 29.406C22.7258 29.3702 21.7859 28.3322 21.7511 27.1151C21.7511 25.7537 22.8383 24.7884 24.153 24.7884C25.6936 24.7884 27.2168 25.4384 28.7829 25.0748C32.7972 24.1835 34.3003 20.6035 36.302 17.4146C37.2419 15.9111 36.7894 13.8708 35.2577 12.9759C33.3783 11.9291 31.4349 11.3072 29.4095 12.5106L16.3206 20.314C15.0326 21.0657 14.2319 22.4975 14.2319 24.0367V38.9992C14.2319 40.5384 15.0326 41.9702 16.3206 42.7219L29.4443 50.4896C30.976 51.4202 32.8906 51.4202 34.4571 50.4896L47.5808 42.7219C48.8688 41.9702 49.6694 40.5384 49.6694 38.9992V24.0367C49.6346 22.4975 48.834 21.0657 47.546 20.314Z" fill="white"/>
</svg>
