<svg width="32" height="33" viewBox="0 0 32 33" fill="none" xmlns="http://www.w3.org/2000/svg">
<path fill-rule="evenodd" clip-rule="evenodd" d="M0 16.5117C0 7.67516 7.16344 0.511719 16 0.511719C24.8366 0.511719 32 7.67516 32 16.5117C32 25.3483 24.8366 32.5117 16 32.5117C7.16344 32.5117 0 25.3483 0 16.5117ZM22.1 12.0117C22.8 11.9117 23.4 11.8117 24 11.5117C23.6 12.2117 23 12.8117 22.3 13.2117C22.5 17.9117 19.1 23.0117 13 23.0117C11.2 23.0117 9.5 22.4117 8 21.5117C9.7 21.7117 11.5 21.2117 12.7 20.3117C11.2 20.3117 10 19.3117 9.6 18.0117C10.1 18.1117 10.6 18.0117 11.1 17.9117C9.6 17.5117 8.5 16.1117 8.5 14.6117C9 14.8117 9.5 15.0117 10 15.0117C8.6 14.0117 8.1 12.1117 9 10.6117C10.7 12.6117 13.1 13.9117 15.8 14.0117C15.3 12.0117 16.9 10.0117 19 10.0117C19.9 10.0117 20.8 10.4117 21.4 11.0117C22.2 10.8117 22.9 10.6117 23.5 10.2117C23.3 11.0117 22.8 11.6117 22.1 12.0117Z" fill="white"/>
</svg>
