<svg width="512" height="11" viewBox="0 0 512 11" fill="none" xmlns="http://www.w3.org/2000/svg">
<path d="M11.0688 5.52488C15.1252 5.53689 19.1843 5.46403 23.2381 5.4256C24.8883 5.40959 26.5386 5.38236 28.1914 5.35674L50.0013 5.02526C58.6912 4.89341 67.3811 4.75275 76.071 4.60329L113.317 3.96755C116.164 3.9187 119.01 3.88747 121.855 3.84584C129.09 3.73908 136.323 3.63499 143.555 3.53357L165.258 3.22211C168.089 3.18127 170.923 3.12842 173.754 3.1004C185.296 2.9883 196.839 2.87727 208.383 2.76731L229.674 2.56233C232.45 2.53511 235.234 2.49508 238.016 2.48227C249.174 2.43316 260.332 2.38165 271.49 2.32773C282.5 2.27809 293.511 2.22765 304.523 2.17641C307.429 2.1636 310.339 2.1692 313.243 2.166C320.433 2.15852 327.622 2.14999 334.81 2.14038C345.987 2.12757 357.164 2.11448 368.341 2.10113C371.991 2.09553 375.654 2.10835 379.309 2.11235L402.268 2.13718H404.166C386.939 2.20817 369.711 2.28182 352.48 2.35816L330.897 2.45585C327.795 2.47026 324.687 2.47346 321.583 2.49828C311.174 2.58102 300.766 2.66749 290.359 2.75771L254.268 3.05556C252.248 3.07237 250.225 3.10761 248.207 3.13563L228.988 3.40626C215.995 3.58882 203 3.77191 190.003 3.95554C188.08 3.98276 186.161 4.0244 184.237 4.06443L165.206 4.46478C153.836 4.70498 142.467 4.94518 131.099 5.18539C127.971 5.25185 124.842 5.34553 121.714 5.4256L99.8753 5.98608C90.6231 6.22629 81.3658 6.45528 72.1162 6.70189C59.2395 7.04459 46.3654 7.38862 33.494 7.73398L24.2288 7.9814C18.6942 8.12953 13.1752 8.34331 7.65364 8.52987C7.36809 8.52987 7.09425 8.56472 6.89233 8.62673C6.69041 8.68875 6.57698 8.77285 6.57698 8.86055C6.57698 8.94825 6.69041 9.03237 6.89233 9.09438C7.09425 9.1564 7.36809 9.19124 7.65364 9.19124C9.67144 9.21847 11.6901 9.24515 13.7097 9.2713C13.4543 9.43227 13.3189 9.6087 13.3134 9.78775C13.3203 10.1093 13.7401 10.417 14.4816 10.644C15.2231 10.871 16.2264 10.999 17.2734 11C33.0586 10.6989 48.8386 10.3714 64.6394 10.1409L105.788 9.54193L151.282 8.87897L165.605 8.66999C166.984 8.65078 168.363 8.62355 169.74 8.61314C194.169 8.41404 218.598 8.21787 243.027 8.02464L282.191 7.71077C286.912 7.67287 291.628 7.64164 296.342 7.61708L371.305 7.25838L403.423 7.09824C412.563 7.0534 421.709 7.03419 430.843 6.9293L453.493 6.66746C457.26 6.62423 461.035 6.5962 464.799 6.52414C473.369 6.35866 481.938 6.18945 490.507 6.0165L490.488 6.02612C490.251 6.14985 490.097 6.28676 490.033 6.42894C489.969 6.57113 489.997 6.71578 490.116 6.85458C490.235 6.99338 490.443 7.12358 490.726 7.23768C491.01 7.35178 491.364 7.44753 491.768 7.51941C492.176 7.5955 492.631 7.64457 493.104 7.66346C493.578 7.68235 494.058 7.67064 494.516 7.6291C496.384 7.40277 498.245 7.17057 500.098 6.9325L499.98 6.94771L500.392 6.89486L500.869 6.83321L500.695 6.85563L503.659 6.4729C504.701 6.34079 505.729 6.20787 506.756 6.07256C507.877 5.92283 508.951 5.74107 510.03 5.56492C510.48 5.4846 510.875 5.37778 511.19 5.25058C511.506 5.12339 511.737 4.97831 511.869 4.82367C512.002 4.66903 512.034 4.50787 511.964 4.34942C511.893 4.19097 511.722 4.03834 511.459 3.90029C511.206 3.76265 510.865 3.64208 510.457 3.54579C510.049 3.44949 509.582 3.37943 509.084 3.33981C508.127 3.28937 507.17 3.25012 506.216 3.21249C506.003 3.20435 505.787 3.20034 505.572 3.20048C504.92 3.20048 504.243 3.22851 503.625 3.24212C502.167 3.27335 500.723 3.33981 499.269 3.37264L495.71 3.4527L486.124 3.66488C485.3 3.6833 484.471 3.69851 483.648 3.71533C483.946 3.6117 484.165 3.48886 484.289 3.35581C484.44 3.24909 484.529 3.13496 484.55 3.01873C484.583 2.93866 484.623 2.85219 484.659 2.76972C484.657 2.66411 484.597 2.55937 484.482 2.45985L484.742 2.42622C485.336 2.31933 485.831 2.16743 486.179 1.98504C486.539 1.79725 486.729 1.58326 486.729 1.36531C486.729 1.14735 486.539 0.93337 486.179 0.745574C485.973 0.665505 485.762 0.579828 485.553 0.496556C485.062 0.346111 484.452 0.237184 483.783 0.180293C482.553 0.0492308 481.255 -0.0112977 479.953 0.00173347C478.885 0.00173347 477.811 0.0249507 476.755 0.0289542L472.146 0.0433709C469.971 0.050577 467.797 0.0593797 465.628 0.0633832C459.893 0.0724576 454.15 0.0815416 448.399 0.0906161C442.994 0.100224 437.595 0.0978122 432.191 0.0978122C427.28 0.0978122 422.37 0.0978122 417.462 0.0978122C397.886 0.124235 378.313 0.133044 358.74 0.194697L314.708 0.330019C308.147 0.350837 301.586 0.382067 295.025 0.423703L250.902 0.709544L238.319 0.789606C235.886 0.80562 233.454 0.844858 231.019 0.86968C216.486 1.03836 201.95 1.20704 187.412 1.37572L174.101 1.53105C171.611 1.55908 169.124 1.61112 166.637 1.65036L123.322 2.36216C115.866 2.48493 108.416 2.61838 100.97 2.76251C88.2152 3.00858 75.4601 3.25493 62.7051 3.50155C51.6541 3.71373 40.598 3.89709 29.547 4.09566L24.294 4.18933C21.4654 4.23978 18.629 4.2742 15.7978 4.31344C13.2873 4.34787 10.7612 4.36949 8.2376 4.34867C8.12076 4.24622 7.90162 4.1577 7.6114 4.09573C7.32118 4.03377 6.97469 4.00152 6.62129 4.00358C4.99715 4.04361 3.37561 4.09726 1.75408 4.15091C1.37233 4.15315 1.00271 4.19247 0.698267 4.26325C0.393826 4.33402 0.170216 4.4326 0.0595413 4.54484C-0.0599382 4.68262 0.00188221 4.82932 0.231636 4.95322C0.46139 5.07712 0.840632 5.16829 1.28743 5.20702C1.99131 5.25826 2.69259 5.3119 3.39908 5.36154C4.10157 5.40276 4.81226 5.42951 5.52637 5.44162C7.3304 5.50808 9.20481 5.51928 11.0688 5.52488ZM457.685 3.65048H464.802C465.015 3.8126 465.342 3.95811 465.761 4.07644C464.843 4.09566 463.936 4.11407 463.008 4.12528L457.82 4.18453L435.171 4.44475C431.714 4.48399 428.257 4.54244 424.8 4.55925C419.4 4.58434 414 4.61104 408.598 4.63933C396.258 4.69911 383.919 4.7589 371.579 4.81868C347.621 4.93718 323.662 5.05328 299.702 5.16698C282.543 5.25105 265.392 5.41439 248.241 5.55211C222.397 5.76296 196.551 5.97274 170.704 6.18145C165.521 6.22389 160.341 6.32477 155.164 6.40003C140.495 6.61355 125.826 6.82894 111.156 7.0462L67.9477 7.67393L63.9486 7.73319C67.8312 7.63764 71.713 7.54396 75.5939 7.45215L116.263 6.50093L130.465 6.16944C132.906 6.11259 135.354 6.07656 137.796 6.03012L180.081 5.24625C182.834 5.1942 185.592 5.12614 188.351 5.09411L200.265 4.9532L243.864 4.43594L253.457 4.32145C254.299 4.31184 255.141 4.31104 255.983 4.30544L262.72 4.2638L306.407 3.99076C313.118 3.94912 319.826 3.90029 326.536 3.88348C348.189 3.83063 369.843 3.76177 391.496 3.73135C413.557 3.70252 435.622 3.65528 457.685 3.65048Z" fill="#1A56DB"/>
</svg>
