<svg width="238" height="9" viewBox="0 0 238 9" fill="none" xmlns="http://www.w3.org/2000/svg">
<path d="M5.14526 4.52036C7.03087 4.53018 8.9177 4.47057 10.8021 4.43913C11.5692 4.42603 12.3363 4.40375 13.1046 4.38279L23.2428 4.11157C27.2822 4.0037 31.3217 3.88861 35.3611 3.76633L52.6746 3.24617C53.9979 3.20621 55.3213 3.18066 56.6434 3.14659C60.0066 3.05924 63.369 2.97408 66.7307 2.8911L76.8192 2.63627C78.1352 2.60286 79.4525 2.55962 80.7686 2.53669C86.1338 2.44497 91.4994 2.35413 96.8654 2.26416L106.762 2.09646C108.053 2.07418 109.347 2.04143 110.64 2.03095C115.827 1.99077 121.014 1.94862 126.2 1.90451C131.318 1.86389 136.437 1.82262 141.555 1.7807C142.907 1.77021 144.259 1.7748 145.609 1.77218C148.951 1.76607 152.293 1.75908 155.635 1.75122C160.83 1.74074 166.026 1.73003 171.221 1.71911C172.918 1.71452 174.62 1.72501 176.319 1.72829L186.992 1.7486H187.874C179.866 1.80669 171.858 1.86695 163.848 1.9294L153.816 2.00933C152.373 2.02112 150.929 2.02374 149.486 2.04405C144.647 2.11174 139.809 2.1825 134.971 2.2563L118.195 2.5C117.256 2.51376 116.315 2.54259 115.377 2.56552L106.444 2.78694C100.404 2.93631 94.3633 3.08611 88.3219 3.23635C87.4276 3.25862 86.5357 3.29269 85.6414 3.32544L76.795 3.653C71.5098 3.84953 66.2249 4.04606 60.9405 4.24259C59.4863 4.29697 58.0321 4.37362 56.5779 4.43913L46.4264 4.8977C42.1256 5.09423 37.8224 5.28159 33.5228 5.48337C27.5371 5.76375 21.5527 6.04523 15.5695 6.3278L11.2626 6.53024C8.68987 6.65143 6.12441 6.82634 3.55775 6.97898C3.42501 6.97898 3.29772 7.00749 3.20386 7.05823C3.11 7.10897 3.05727 7.17778 3.05727 7.24954C3.05727 7.3213 3.11 7.39012 3.20386 7.44086C3.29772 7.4916 3.42501 7.52011 3.55775 7.52011C4.49571 7.54238 5.43408 7.56421 6.37285 7.58561C6.25414 7.71731 6.19121 7.86166 6.18865 8.00816C6.19184 8.27125 6.38699 8.52302 6.73169 8.70874C7.07638 8.89447 7.54275 8.99914 8.02942 9C15.3671 8.75368 22.7023 8.48573 30.0472 8.29706L49.1748 7.80704L70.3225 7.26461L76.9804 7.09363C77.6214 7.07791 78.2625 7.05563 78.9023 7.04712C90.258 6.88421 101.614 6.72371 112.969 6.56561L131.175 6.30881C133.369 6.2778 135.562 6.25225 137.753 6.23216L172.599 5.93867L187.529 5.80765C191.777 5.77097 196.029 5.75525 200.275 5.66943L210.803 5.4552C212.554 5.41982 214.309 5.39689 216.059 5.33793C220.043 5.20254 224.026 5.0641 228.009 4.92259L228 4.93046C227.89 5.0317 227.818 5.14371 227.789 5.26004C227.759 5.37638 227.772 5.49473 227.828 5.60829C227.883 5.72185 227.979 5.82839 228.111 5.92174C228.243 6.01509 228.407 6.09343 228.595 6.15224C228.785 6.2145 228.997 6.25465 229.216 6.27011C229.436 6.28556 229.66 6.27598 229.873 6.24199C230.741 6.05681 231.606 5.86683 232.467 5.67204L232.413 5.68449L232.604 5.64125L232.826 5.59081L232.745 5.60915L234.123 5.29601C234.607 5.18792 235.085 5.07917 235.562 4.96845C236.083 4.84595 236.583 4.69724 237.084 4.55311C237.294 4.4874 237.477 4.4 237.624 4.29593C237.77 4.19186 237.878 4.07316 237.939 3.94664C238.001 3.82011 238.016 3.68826 237.983 3.55862C237.95 3.42897 237.871 3.3041 237.748 3.19115C237.631 3.07853 237.472 2.97989 237.283 2.9011C237.093 2.82231 236.876 2.76499 236.644 2.73257C236.2 2.6913 235.755 2.65919 235.311 2.6284C235.212 2.62174 235.112 2.61846 235.012 2.61858C234.709 2.61858 234.394 2.64151 234.107 2.65264C233.429 2.67819 232.758 2.73257 232.082 2.75943L230.428 2.82494L225.972 2.99854C225.589 3.01361 225.203 3.02606 224.821 3.03981C224.959 2.95503 225.061 2.85452 225.119 2.74567C225.189 2.65835 225.23 2.56497 225.24 2.46987C225.256 2.40436 225.274 2.33361 225.291 2.26613C225.29 2.17973 225.262 2.09403 225.208 2.01261L225.33 1.98509C225.606 1.89763 225.835 1.77335 225.997 1.62413C226.165 1.47048 226.253 1.2954 226.253 1.11707C226.253 0.938744 226.165 0.763666 225.997 0.610015C225.902 0.544504 225.803 0.474404 225.706 0.406273C225.478 0.283182 225.194 0.19406 224.884 0.147512C224.312 0.0402797 223.708 -0.00924357 223.103 0.0014183C222.607 0.0014183 222.107 0.0204142 221.616 0.0236898L219.474 0.0354852C218.463 0.0413812 217.453 0.0485834 216.444 0.051859C213.778 0.0592835 211.109 0.0667159 208.435 0.0741404C205.923 0.0820017 203.413 0.0800282 200.901 0.0800282C198.618 0.0800282 196.336 0.0800282 194.054 0.0800282C184.955 0.101647 175.856 0.108854 166.758 0.159298L146.29 0.270015C143.24 0.287048 140.19 0.3126 137.141 0.346666L116.63 0.580536L110.781 0.646041C109.65 0.659143 108.52 0.691248 107.388 0.711556C100.632 0.849566 93.8754 0.987578 87.1174 1.12559L80.9297 1.25268C79.7724 1.27561 78.6163 1.31819 77.4603 1.35029L57.3256 1.93268C53.8598 2.03313 50.3964 2.14231 46.9354 2.26023C41.0063 2.46157 35.0772 2.66313 29.1481 2.8649C24.0111 3.0385 18.8717 3.18853 13.7347 3.35099L11.2929 3.42764C9.97805 3.46891 8.65957 3.49708 7.34352 3.52918C6.17652 3.55735 5.00225 3.57504 3.8292 3.55801C3.77489 3.47418 3.67302 3.40175 3.53811 3.35105C3.4032 3.30036 3.24214 3.27397 3.07787 3.27565C2.32289 3.30841 1.56913 3.3523 0.815372 3.3962C0.637918 3.39803 0.466102 3.43021 0.324585 3.48811C0.183068 3.54602 0.0791237 3.62668 0.0276774 3.7185C-0.0278619 3.83124 0.00087493 3.95126 0.107675 4.05264C0.214474 4.15401 0.390762 4.2286 0.598452 4.26029C0.925648 4.30221 1.25163 4.3461 1.58004 4.38672C1.90659 4.42044 2.23695 4.44233 2.5689 4.45223C3.40749 4.50661 4.2788 4.51577 5.14526 4.52036ZM212.752 2.98675H216.06C216.159 3.1194 216.311 3.23845 216.506 3.33527C216.08 3.35099 215.658 3.36605 215.226 3.37523L212.815 3.42371L202.286 3.63662C200.68 3.66872 199.073 3.71654 197.466 3.7303C194.956 3.75083 192.445 3.77267 189.934 3.79581C184.198 3.84473 178.462 3.89364 172.726 3.94256C161.589 4.03951 150.452 4.1345 139.315 4.22753C131.338 4.29632 123.366 4.42996 115.393 4.54264C103.38 4.71515 91.3657 4.88679 79.3507 5.05755C76.9416 5.09227 74.5337 5.17481 72.127 5.23639C65.3084 5.41109 58.4894 5.58732 51.67 5.76507L31.5851 6.27867L29.7261 6.32715C31.5309 6.24898 33.3354 6.17233 35.1394 6.09721L54.044 5.31894L60.6461 5.04772C61.7803 5.00121 62.9183 4.97173 64.0537 4.93374L83.7097 4.29238C84.9894 4.2498 86.2715 4.19412 87.5536 4.16791L93.0917 4.05262L113.358 3.62941L117.818 3.53573C118.209 3.52787 118.601 3.52721 118.992 3.52263L122.124 3.48856L142.432 3.26517C145.551 3.2311 148.669 3.19115 151.788 3.17739C161.854 3.13415 171.919 3.07781 181.985 3.05292C192.239 3.02934 202.496 2.99068 212.752 2.98675Z" fill="#4576E2"/>
</svg>
