<svg width="1440" height="668" viewBox="0 0 1440 668" fill="none" xmlns="http://www.w3.org/2000/svg">
<path d="M-214.729 405.272C-4.05118 525.884 109.532 941.065 24.9194 1153.32C-68.562 1387.71 -653.1 1352.11 -720.172 1294.95C-787.245 1237.8 -238.904 1054.91 -313.729 839.241C-396.831 599.855 -814.114 599.526 -802.749 497.308C-791.581 396.732 -458.254 265.871 -214.729 405.272Z" stroke="#1A56DB" stroke-opacity="0.03" stroke-width="5" stroke-miterlimit="10"/>
<path d="M-148.775 375.777C98.1659 480.886 205.311 983.439 96.4579 1220.2C-26.9138 1488.36 -661.969 1388.96 -756.239 1346.53C-837.502 1310 -309.986 1064.04 -373.051 803.44C-441.503 520.302 -817.859 474.317 -789.743 408.624C-759.524 338.201 -438.547 252.734 -148.775 375.777Z" stroke="#1A56DB" stroke-opacity="0.03" stroke-width="5" stroke-miterlimit="10"/>
<path d="M-82.8215 346.349C199.988 435.626 300.892 1025.75 167.995 1287.01C14.47 1589.2 -665.783 1424.96 -792.308 1398.16C-884.278 1378.45 -381.528 1073.51 -432.309 767.508C-486.506 441.144 -830.081 345.429 -776.738 320.4C-736.928 276.057 -419.893 239.86 -82.8215 346.349Z" stroke="#1A56DB" stroke-opacity="0.03" stroke-width="5" stroke-miterlimit="10"/>
<path d="M-16.864 316.656C301.616 390.758 396.28 1067.79 239.339 1353.69C55.3985 1689.25 -678.591 1508.4 -828.569 1449.6C-922.51 1412.75 -453.527 1082.84 -491.76 731.64C-532.03 362.05 -838.226 218.313 -763.927 231.912C-709.598 215.685 -401.169 227.379 -16.864 316.656Z" stroke="#1A56DB" stroke-opacity="0.03" stroke-width="5" stroke-miterlimit="10"/>
<path d="M49.0972 287.356C403.118 346.48 491.541 1110.1 311.081 1420.76C96.659 1789.96 -674.316 1548.07 -864.432 1501.37C-971.117 1475.09 -525.324 1092.62 -550.878 696.033C-577.156 283.217 -853.067 108.014 -750.717 143.685C-685.155 166.48 -382.572 215.225 49.0972 287.356Z" stroke="#1A56DB" stroke-opacity="0.03" stroke-width="5" stroke-miterlimit="10"/>
<path d="M114.979 257.859C504.605 302.333 586.722 1152.27 382.613 1487.57C137.512 1890.33 -671.236 1517.39 -900.571 1553.26C-1019.41 1571.72 -597.595 1102.48 -610.208 660.427C-623.346 204.516 -863.126 -22.1907 -737.718 55.59C-659.675 103.677 -364.055 203.268 114.979 257.859Z" stroke="#1A56DB" stroke-opacity="0.03" stroke-width="5" stroke-miterlimit="10"/>
<path d="M180.931 228.43C606.098 258.255 681.842 1194.12 454.215 1554.45C178.304 1990.65 -674.065 1544.46 -936.575 1604.57C-1065 1634 -669.795 1111.87 -669.401 624.363C-669.007 125.095 -871.079 -152.131 -724.649 -33.0946C-632.81 41.5985 -345.534 191.445 180.931 228.43Z" stroke="#1A56DB" stroke-opacity="0.03" stroke-width="5" stroke-miterlimit="10"/>
<path d="M246.9 198.933C707.606 214.305 776.781 1236.36 525.768 1621.32C219.243 2090.96 -677.6 1570.54 -972.628 1656.2C-1110.98 1696.34 -742.176 1121.33 -728.709 588.56C-714.979 46.1968 -878.489 -281.021 -711.629 -121.452C-605.469 -20.0221 -326.864 179.817 246.9 198.933Z" stroke="#1A56DB" stroke-opacity="0.03" stroke-width="5" stroke-miterlimit="10"/>
<path d="M312.85 169.436C809.096 170.421 872.03 1278.4 597.301 1688.2C260.033 2191.27 -681.744 1596.23 -1008.7 1707.9C-1157.3 1758.69 -814.641 1130.99 -787.97 552.821C-760.97 -32.7674 -885.787 -409.321 -698.627 -209.811C-577.883 -81.249 -308.41 168.254 312.85 169.436Z" stroke="#1A56DB" stroke-opacity="0.03" stroke-width="5" stroke-miterlimit="10"/>
<path d="M378.807 140.007C910.922 126.868 967.089 1320.38 668.842 1755.01C300.961 2291.46 -686.408 1621.19 -1044.76 1759.41C-1203.87 1820.77 -887.1 1140.45 -847.225 516.954C-807.02 -111.861 -893.21 -537.487 -685.554 -298.298C-550.226 -142.277 -289.818 156.824 378.807 140.007Z" stroke="#1A56DB" stroke-opacity="0.03" stroke-width="5" stroke-miterlimit="10"/>
<path d="M444.763 110.51C1012.22 82.8531 1062.28 1362.36 740.382 1821.88C341.493 2391.7 -691.729 1646.09 -1080.83 1811.04C-1250.65 1882.91 -959.691 1149.97 -906.545 481.151C-853.137 -190.956 -900.37 -665.326 -672.546 -386.656C-522.503 -203.175 -271.161 145.459 444.763 110.51Z" stroke="#1A56DB" stroke-opacity="0.03" stroke-width="5" stroke-miterlimit="10"/>
<path d="M510.722 81.0126C1113.79 39.1004 1157.08 1404.34 811.926 1888.76C382.161 2491.89 -696.784 1670.79 -1116.89 1862.48C-1297.48 1944.99 -1032.21 1159.56 -965.797 445.15C-899.25 -270.183 -907.659 -793.232 -659.536 -475.211C-494.843 -264.008 -252.501 134.093 510.722 81.0126Z" stroke="#1A56DB" stroke-opacity="0.03" stroke-width="5" stroke-miterlimit="10"/>
<path d="M576.669 51.5826C1215.4 -4.5851 1252.06 1446.58 883.456 1955.57C422.816 2592.07 -702.377 1695.42 -1153.03 1914.25C-1344.59 2007.27 -1104.88 1168.96 -1025.13 409.479C-945.376 -350 -914.96 -920.742 -646.537 -563.634C-467.129 -324.774 -233.853 122.86 576.669 51.5826Z" stroke="#1A56DB" stroke-opacity="0.03" stroke-width="5" stroke-miterlimit="10"/>
<path d="M642.624 22.0857C1317.03 -48.2716 1347.05 1488.23 955.061 2022.44C463.479 2692.51 -708.224 1720.25 -1189.03 1965.88C-1391.7 2069.48 -1177.47 1178.42 -1084.38 373.676C-991.559 -428.241 -922.318 -1048.25 -633.466 -651.86C-439.408 -385.475 -215.197 111.56 642.624 22.0857Z" stroke="#1A56DB" stroke-opacity="0.03" stroke-width="5" stroke-miterlimit="10"/>
<path d="M708.592 -7.40863C1418.67 -91.9557 1441 1529.42 1026.42 2089.32C502.644 2791.45 -714.453 1744.43 -1225.28 2017.45C-1439.05 2131.69 -1250.31 1187.88 -1143.82 337.875C-1037.93 -507.334 -929.861 -1175.83 -620.643 -740.281C-411.674 -446.173 -196.397 100.394 708.592 -7.40863Z" stroke="#1A56DB" stroke-opacity="0.03" stroke-width="5" stroke-miterlimit="10"/>
<path d="M774.54 -36.8403C1520.29 -135.577 1536.06 1571.39 1098.14 2156.06C543.629 2891.83 -720.308 1768.47 -1261.16 2068.95C-1486.16 2193.77 -1322.78 1197.21 -1202.89 301.808C-1083.98 -586.758 -937.029 -1303.54 -607.447 -828.969C-383.959 -506.875 -177.682 89.1592 774.54 -36.8403Z" stroke="#1A56DB" stroke-opacity="0.03" stroke-width="5" stroke-miterlimit="10"/>
<path d="M840.495 -66.3378C1622.24 -179.199 1631.18 1613.44 1169.68 2223C584.423 2991.61 -726.484 1793.3 -1297.23 2120.65C-1533.72 2256.18 -1397.01 1206.6 -1262.15 266.201C-1131.75 -665.853 -944.389 -1430.78 -594.441 -917.064C-356.238 -567.511 -158.895 77.9901 840.495 -66.3378Z" stroke="#1A56DB" stroke-opacity="0.03" stroke-width="5" stroke-miterlimit="10"/>
<path d="M906.447 -95.8302C1723.87 -221.37 1726.3 1655.48 1241.22 2289.88C625.214 3092.26 -732.795 1817.75 -1333.36 2172.29C-1580.83 2318.39 -1469.35 1216.06 -1321.47 230.402C-1177.67 -744.944 -951.75 -1558.16 -581.372 -1005.48C-328.519 -628.142 -139.848 68.6655 906.447 -95.8302Z" stroke="#1A56DB" stroke-opacity="0.03" stroke-width="5" stroke-miterlimit="10"/>
<path d="M972.415 -125.263C1825.51 -265.321 1821.3 1697.46 1312.77 2356.76C666.088 3192.5 -739.155 1842.12 -1369.41 2223.92C-1628.18 2380.67 -1541.73 1225.39 -1380.71 194.597C-1223.58 -824.042 -959.161 -1685.61 -568.352 -1093.84C-300.587 -688.451 -121.114 57.1008 972.415 -125.263Z" stroke="#1A56DB" stroke-opacity="0.03" stroke-width="5" stroke-miterlimit="10"/>
<path d="M1038.37 -154.759C1927.13 -309.269 1916.49 1739.5 1384.31 2423.57C706.881 3292.56 -745.661 1866.55 -1405.48 2275.49C-1675.61 2442.95 -1614.45 1235.05 -1439.97 158.992C-1269.17 -902.938 -965.47 -1813.51 -555.347 -1182.07C-272.276 -749.873 -102.393 45.4742 1038.37 -154.759Z" stroke="#1A56DB" stroke-opacity="0.03" stroke-width="5" stroke-miterlimit="10"/>
<path d="M1104.32 -184.256C2028.75 -353.416 2011.8 1781.61 1455.84 2490.44C747.668 3393 -752.173 1890.99 -1441.56 2326.86C-1723.12 2505.02 -1686.53 1244.24 -1499.3 122.728C-1315.43 -982.297 -973.427 -1940.69 -542.349 -1270.69C-244.956 -810.181 -83.8104 34.1734 1104.32 -184.256Z" stroke="#1A56DB" stroke-opacity="0.03" stroke-width="5" stroke-miterlimit="10"/>
<path d="M-529.271 -1359.05C-217.622 -870.553 -64.8859 22.2831 1170.28 -213.687C2130.45 -397.168 2106.73 1823.52 1527.45 2557.32C788.468 3493.31 -758.671 1915.43 -1477.62 2378.7C-2059 2753.41 -1440.63 -2787.68 -529.271 -1359.05Z" stroke="#1A56DB" stroke-opacity="0.03" stroke-width="5" stroke-miterlimit="10"/>
</svg>
