<svg width="64" height="63" viewBox="0 0 64 63" fill="none" xmlns="http://www.w3.org/2000/svg">
<path d="M37.7686 37.3312C34.0287 38.7386 29.8378 38.7411 26.0978 37.3321C24.6887 33.5962 24.6883 29.4062 26.0956 25.6697C29.8346 24.26 34.0297 24.2597 37.7688 25.6695C39.1773 29.4048 39.1767 33.5959 37.7686 37.3312ZM59.13 26.9064H43.0308L54.414 15.5297C52.6275 13.0218 50.422 10.8188 47.9125 9.03338L36.5285 20.41V4.32127C33.4903 3.81049 30.3743 3.81127 27.3361 4.32127V20.41L15.9521 9.03338C13.4432 10.8176 11.237 13.0237 9.45041 15.5297L20.8353 26.9064H4.73632C4.33893 30.0337 4.20982 32.9728 4.73632 36.0937H20.8355L9.45062 47.4704C11.2415 49.982 13.4388 52.1778 15.9521 53.9676L27.3361 42.5901V58.6797C30.3747 59.1885 33.4897 59.1888 36.5283 58.6797V42.5901L47.9134 53.9676C50.4239 52.1804 52.6256 49.9792 54.414 47.4704L43.0291 36.0937H59.13C59.6409 33.06 59.6409 29.94 59.13 26.9064Z" fill="#FF4A00"/>
</svg>
